<svg version="1.1" id="Layer_1" xmlns="http://www.w3.org/2000/svg" xmlns:xlink="http://www.w3.org/1999/xlink" x="0px" y="0px"
	 width="100%" viewBox="0 0 512 512" enable-background="new 0 0 512 512" xml:space="preserve">
<path fill="#000000" opacity="1.000000" stroke="none" 
	d="
M306.000000,513.000000 
	C204.024765,513.000000 102.549522,513.000000 1.037143,513.000000 
	C1.037143,342.399750 1.037143,171.799469 1.037143,1.099597 
	C171.558578,1.099597 342.117249,1.099597 512.837952,1.099597 
	C512.837952,171.666550 512.837952,342.333252 512.837952,513.000000 
	C444.132782,513.000000 375.316376,513.000000 306.000000,513.000000 
M314.875916,427.016785 
	C321.155060,423.935486 322.700897,419.518372 319.997986,411.262421 
	C309.735657,397.405762 299.561768,383.482178 289.159912,369.731049 
	C285.811951,365.305084 281.548126,362.638794 275.359344,362.868011 
	C263.389404,363.311340 251.391403,362.997620 239.405029,362.997620 
	C178.141357,362.997589 116.877396,362.926941 55.614796,363.182373 
	C52.137600,363.196869 47.435322,364.910645 45.404964,367.488739 
	C33.947411,382.037292 23.132624,397.092010 11.948691,412.781555 
	C9.619123,419.467712 11.545036,424.139801 18.025269,427.573303 
	C18.343828,427.681366 18.662386,427.789459 19.912487,428.029297 
	C115.786438,428.027740 211.660385,428.026947 307.534332,428.018555 
	C309.361877,428.018402 311.189423,427.928070 313.563934,427.938721 
	C313.756927,427.639709 313.949921,427.340668 314.875916,427.016785 
M127.996452,320.991333 
	C105.346878,320.994263 82.695992,321.130463 60.048660,320.906647 
	C54.372116,320.850555 50.052235,322.784729 46.567348,326.954865 
	C43.558743,330.555115 42.149639,334.750244 43.774719,339.300232 
	C45.387020,343.814392 49.560600,342.988312 53.138275,342.989197 
	C128.914413,343.007965 204.690536,343.003448 280.466675,343.003204 
	C281.465912,343.003204 282.465149,342.999542 283.464386,342.997528 
	C286.869965,342.990692 288.589355,341.204926 288.986847,337.896088 
	C290.126343,328.409851 283.613892,321.013519 274.029541,321.003723 
	C250.713959,320.979828 227.398361,320.976349 204.013641,320.034180 
	C204.013641,313.454407 204.013641,306.874603 204.013641,299.983002 
	C206.886108,299.983002 208.870636,299.983002 210.855148,299.983032 
	C240.679901,299.983521 270.505157,299.883759 300.329102,300.041016 
	C310.253021,300.093323 321.271667,290.912567 321.194244,279.334778 
	C320.811981,222.187103 321.019806,165.035477 321.020477,107.885254 
	C321.020630,94.589142 312.391388,85.980789 299.027832,85.980255 
	C210.886520,85.976753 122.744766,86.120148 34.604313,85.843758 
	C19.241091,85.795570 10.951781,96.515877 10.968820,109.757256 
	C11.040211,165.241211 11.032685,220.725311 10.975403,276.209290 
	C10.961205,289.960999 19.574409,300.334747 34.607048,300.111084 
	C63.925453,299.674774 93.254936,299.983093 122.579834,299.983032 
	C124.524567,299.983032 126.469299,299.983002 128.919510,299.983002 
	C128.919510,307.403290 128.919510,314.184448 127.996452,320.991333 
M408.405151,427.759186 
	C432.553986,427.839752 456.702789,427.950684 480.851715,427.988739 
	C493.849121,428.009247 502.982574,418.903046 502.987030,405.768616 
	C503.020599,306.653076 503.023224,207.537537 502.979767,108.422020 
	C502.974884,97.258492 494.957886,85.791489 480.512299,85.899353 
	C441.534576,86.190437 402.550415,86.259972 363.575134,85.835526 
	C352.288330,85.712601 341.805420,96.604485 341.837982,107.534889 
	C342.117615,201.319000 341.996094,295.104309 342.014618,388.889252 
	C342.015045,391.042419 342.252014,393.195526 341.864594,395.805389 
	C337.023254,400.730164 333.710510,406.448608 331.848419,413.178284 
	C329.511810,421.622833 333.943817,428.028412 342.590698,428.025879 
	C361.920441,428.020233 381.250244,428.030945 400.579834,427.969635 
	C402.884094,427.962341 405.187042,427.549042 408.405151,427.759186 
z"/>
<path fill="#454545" opacity="1.000000" stroke="none" 
	d="
M342.378693,395.348694 
	C342.252014,393.195526 342.015045,391.042419 342.014618,388.889252 
	C341.996094,295.104309 342.117615,201.319000 341.837982,107.534889 
	C341.805420,96.604485 352.288330,85.712601 363.575134,85.835526 
	C402.550415,86.259972 441.534576,86.190437 480.512299,85.899353 
	C494.957886,85.791489 502.974884,97.258492 502.979767,108.422020 
	C503.023224,207.537537 503.020599,306.653076 502.987030,405.768616 
	C502.982574,418.903046 493.849121,428.009247 480.851715,427.988739 
	C456.702789,427.950684 432.553986,427.839752 408.094421,427.243134 
	C413.690704,421.644989 414.623474,418.322968 411.893524,411.651398 
	C402.056122,386.037292 370.467041,376.443451 347.589294,391.922760 
	C345.631531,393.101166 344.005096,394.224945 342.378693,395.348694 
M391.509888,209.013840 
	C413.647949,209.013840 435.785980,209.015381 457.924042,209.011719 
	C460.420410,209.011307 463.149506,209.601578 465.342926,208.778275 
	C467.259003,208.059113 469.369812,205.980637 469.965607,204.059540 
	C470.873962,201.130630 468.889313,198.987366 465.825897,198.391937 
	C464.375336,198.110016 462.844177,198.195740 461.349487,198.194992 
	C440.210144,198.184525 419.070801,198.185364 397.931458,198.189346 
	C391.939423,198.190475 385.944366,198.100876 379.956451,198.263519 
	C376.462036,198.358444 374.203918,200.367157 374.367493,203.941452 
	C374.517395,207.217819 376.677734,208.971756 380.029663,208.999908 
	C383.524902,209.029266 387.020538,209.011185 391.509888,209.013840 
M393.503357,176.986145 
	C388.842987,176.995636 384.103821,176.513962 379.558990,177.243439 
	C377.593689,177.558884 374.720276,180.319885 374.646912,182.070099 
	C374.571564,183.867233 377.185516,186.077164 379.066986,187.531494 
	C380.028137,188.274429 381.962250,187.804352 383.456635,187.804993 
	C406.426178,187.814926 429.395721,187.813919 452.365265,187.810516 
	C456.526245,187.809906 460.702179,188.003342 464.844086,187.716034 
	C469.260101,187.409714 471.919006,183.338852 469.576416,180.056549 
	C468.342773,178.328079 465.202698,177.136215 462.910309,177.114929 
	C440.109161,176.903000 417.305298,176.986298 393.503357,176.986145 
M470.172089,150.461227 
	C470.076202,146.037872 467.337097,144.962570 463.494019,144.967743 
	C436.006622,145.004700 408.519073,145.010254 381.031708,144.960220 
	C377.361755,144.953537 374.535675,146.171021 374.382202,150.055206 
	C374.217316,154.226807 377.105957,155.801636 380.965118,155.802429 
	C408.619171,155.808212 436.273224,155.816925 463.927246,155.789627 
	C467.003845,155.786591 469.535645,154.818512 470.172089,150.461227 
M465.043732,123.816826 
	C437.062256,123.809692 409.080719,123.828163 381.099365,123.764191 
	C377.449615,123.755836 374.576599,124.820633 374.443726,128.779144 
	C374.313385,132.662796 376.870697,134.226715 380.662079,134.221558 
	C408.476990,134.183685 436.292023,134.196075 464.106995,134.209702 
	C467.048981,134.211136 469.504181,133.446075 470.026978,130.151184 
	C470.534088,126.955368 469.472076,124.558617 465.043732,123.816826 
M418.603363,321.759674 
	C413.008484,324.854675 410.905701,328.481720 411.994110,333.788940 
	C412.963654,338.516510 415.968994,341.400482 420.791534,342.083160 
	C425.358185,342.729553 429.020050,341.051697 431.417450,337.097504 
	C433.698090,333.335846 433.647430,329.422394 431.129028,325.804413 
	C428.265411,321.690460 424.269104,320.192902 418.603363,321.759674 
z"/>
<path fill="#404040" opacity="1.000000" stroke="none" 
	d="
M128.919510,320.965607 
	C128.919510,314.184448 128.919510,307.403290 128.919510,299.983002 
	C126.469299,299.983002 124.524567,299.983032 122.579834,299.983032 
	C93.254936,299.983093 63.925453,299.674774 34.607048,300.111084 
	C19.574409,300.334747 10.961205,289.960999 10.975403,276.209290 
	C11.032685,220.725311 11.040211,165.241211 10.968820,109.757256 
	C10.951781,96.515877 19.241091,85.795570 34.604313,85.843758 
	C122.744766,86.120148 210.886520,85.976753 299.027832,85.980255 
	C312.391388,85.980789 321.020630,94.589142 321.020477,107.885254 
	C321.019806,165.035477 320.811981,222.187103 321.194244,279.334778 
	C321.271667,290.912567 310.253021,300.093323 300.329102,300.041016 
	C270.505157,299.883759 240.679901,299.983521 210.855148,299.983032 
	C208.870636,299.983002 206.886108,299.983002 204.013641,299.983002 
	C204.013641,306.874603 204.013641,313.454407 203.572052,320.511780 
	C178.393494,320.981476 153.656494,320.973541 128.919510,320.965607 
M43.286301,107.654854 
	C35.480099,106.384109 33.021053,108.346573 33.020351,115.881424 
	C33.016792,154.008301 33.018677,192.135178 33.018696,230.262054 
	C33.018703,243.914474 33.004292,257.566925 33.026085,271.219299 
	C33.034698,276.614624 34.590351,278.294373 39.980373,278.808777 
	C41.136055,278.919098 42.309551,278.851227 43.474842,278.851257 
	C123.557938,278.852570 203.641022,278.857025 283.724121,278.822662 
	C285.504181,278.821899 287.284027,278.377899 289.926727,278.153015 
	C298.904297,278.094208 299.909698,277.090057 299.910187,268.101746 
	C299.912872,217.812241 299.914703,167.522751 299.908081,117.233246 
	C299.907013,109.209686 298.582764,107.863998 290.758972,107.863091 
	C254.457275,107.858887 218.155594,107.848251 181.853897,107.864273 
	C135.894989,107.884567 89.936073,107.928413 43.286301,107.654854 
z"/>
<path fill="#EDEDED" opacity="1.000000" stroke="none" 
	d="
M12.098768,411.974213 
	C23.132624,397.092010 33.947411,382.037292 45.404964,367.488739 
	C47.435322,364.910645 52.137600,363.196869 55.614796,363.182373 
	C116.877396,362.926941 178.141357,362.997589 239.405029,362.997620 
	C251.391403,362.997620 263.389404,363.311340 275.359344,362.868011 
	C281.548126,362.638794 285.811951,365.305084 289.159912,369.731049 
	C299.561768,383.482178 309.735657,397.405762 319.591492,411.609863 
	C216.822906,411.962952 114.460831,411.968597 12.098768,411.974213 
M178.500000,374.052246 
	C139.670868,374.052307 100.841461,373.994568 62.013203,374.178986 
	C59.348873,374.191620 55.700459,375.240845 54.218113,377.140869 
	C49.628773,383.023315 45.778431,389.496002 41.821350,395.851715 
	C40.078465,398.651031 40.865719,400.679993 44.434334,400.961487 
	C45.925350,401.079102 47.432407,400.999115 48.932171,400.999115 
	C115.424973,401.000092 181.917786,401.000000 248.410583,401.000000 
	C261.075867,401.000000 273.741608,401.049896 286.405945,400.940063 
	C288.094666,400.925446 289.776337,400.101135 291.461273,399.651825 
	C290.914032,397.857635 290.721985,395.838593 289.754578,394.310394 
	C286.553406,389.253693 282.858154,384.503601 279.767242,379.385345 
	C277.321747,375.335754 274.187012,373.936462 269.489746,373.963684 
	C239.494003,374.137543 209.496750,374.052338 178.500000,374.052246 
z"/>
<path fill="#454545" opacity="1.000000" stroke="none" 
	d="
M128.457977,320.978455 
	C153.656494,320.973541 178.393494,320.981476 203.606628,320.977051 
	C227.398361,320.976349 250.713959,320.979828 274.029541,321.003723 
	C283.613892,321.013519 290.126343,328.409851 288.986847,337.896088 
	C288.589355,341.204926 286.869965,342.990692 283.464386,342.997528 
	C282.465149,342.999542 281.465912,343.003204 280.466675,343.003204 
	C204.690536,343.003448 128.914413,343.007965 53.138275,342.989197 
	C49.560600,342.988312 45.387020,343.814392 43.774719,339.300232 
	C42.149639,334.750244 43.558743,330.555115 46.567348,326.954865 
	C50.052235,322.784729 54.372116,320.850555 60.048660,320.906647 
	C82.695992,321.130463 105.346878,320.994263 128.457977,320.978455 
z"/>
<path fill="#C1C1C1" opacity="1.000000" stroke="none" 
	d="
M12.023727,412.377869 
	C114.460831,411.968597 216.822906,411.962952 319.662598,411.965851 
	C322.700897,419.518372 321.155060,423.935486 314.281982,427.111786 
	C313.380737,427.347687 313.157043,427.572021 313.016968,427.879791 
	C311.189423,427.928070 309.361877,428.018402 307.534332,428.018555 
	C211.660385,428.026947 115.786438,428.027740 19.310562,427.757996 
	C18.455246,427.264130 18.163122,427.120087 17.832266,427.054535 
	C11.545036,424.139801 9.619123,419.467712 12.023727,412.377869 
z"/>
<path fill="#C2C2C2" opacity="1.000000" stroke="none" 
	d="
M342.121643,395.577026 
	C344.005096,394.224945 345.631531,393.101166 347.613220,392.379089 
	C346.286102,405.828430 355.914185,412.392761 367.425537,412.061584 
	C382.243713,411.635284 397.084442,411.992493 411.915436,412.012238 
	C414.623474,418.322968 413.690704,421.644989 407.637146,427.025513 
	C405.187042,427.549042 402.884094,427.962341 400.579834,427.969635 
	C381.250244,428.030945 361.920441,428.020233 342.590698,428.025879 
	C333.943817,428.028412 329.511810,421.622833 331.848419,413.178284 
	C333.710510,406.448608 337.023254,400.730164 342.121643,395.577026 
z"/>
<path fill="#CBCBCB" opacity="1.000000" stroke="none" 
	d="
M17.928768,427.313904 
	C18.163122,427.120087 18.455246,427.264130 18.844791,427.692108 
	C18.662386,427.789459 18.343828,427.681366 17.928768,427.313904 
z"/>
<path fill="#CBCBCB" opacity="1.000000" stroke="none" 
	d="
M313.290466,427.909241 
	C313.157043,427.572021 313.380737,427.347687 313.915466,427.124207 
	C313.949921,427.340668 313.756927,427.639709 313.290466,427.909241 
z"/>
<path fill="#ECECEC" opacity="1.000000" stroke="none" 
	d="
M411.893524,411.651398 
	C397.084442,411.992493 382.243713,411.635284 367.425537,412.061584 
	C355.914185,412.392761 346.286102,405.828430 347.944550,392.324463 
	C370.467041,376.443451 402.056122,386.037292 411.893524,411.651398 
z"/>
<path fill="#BDBDBD" opacity="1.000000" stroke="none" 
	d="
M391.012939,209.013855 
	C387.020538,209.011185 383.524902,209.029266 380.029663,208.999908 
	C376.677734,208.971756 374.517395,207.217819 374.367493,203.941452 
	C374.203918,200.367157 376.462036,198.358444 379.956451,198.263519 
	C385.944366,198.100876 391.939423,198.190475 397.931458,198.189346 
	C419.070801,198.185364 440.210144,198.184525 461.349487,198.194992 
	C462.844177,198.195740 464.375336,198.110016 465.825897,198.391937 
	C468.889313,198.987366 470.873962,201.130630 469.965607,204.059540 
	C469.369812,205.980637 467.259003,208.059113 465.342926,208.778275 
	C463.149506,209.601578 460.420410,209.011307 457.924042,209.011719 
	C435.785980,209.015381 413.647949,209.013840 391.012939,209.013855 
z"/>
<path fill="#BDBDBD" opacity="1.000000" stroke="none" 
	d="
M394.002777,176.986145 
	C417.305298,176.986298 440.109161,176.903000 462.910309,177.114929 
	C465.202698,177.136215 468.342773,178.328079 469.576416,180.056549 
	C471.919006,183.338852 469.260101,187.409714 464.844086,187.716034 
	C460.702179,188.003342 456.526245,187.809906 452.365265,187.810516 
	C429.395721,187.813919 406.426178,187.814926 383.456635,187.804993 
	C381.962250,187.804352 380.028137,188.274429 379.066986,187.531494 
	C377.185516,186.077164 374.571564,183.867233 374.646912,182.070099 
	C374.720276,180.319885 377.593689,177.558884 379.558990,177.243439 
	C384.103821,176.513962 388.842987,176.995636 394.002777,176.986145 
z"/>
<path fill="#BDBDBD" opacity="1.000000" stroke="none" 
	d="
M470.143250,150.871368 
	C469.535645,154.818512 467.003845,155.786591 463.927246,155.789627 
	C436.273224,155.816925 408.619171,155.808212 380.965118,155.802429 
	C377.105957,155.801636 374.217316,154.226807 374.382202,150.055206 
	C374.535675,146.171021 377.361755,144.953537 381.031708,144.960220 
	C408.519073,145.010254 436.006622,145.004700 463.494019,144.967743 
	C467.337097,144.962570 470.076202,146.037872 470.143250,150.871368 
z"/>
<path fill="#C1C1C1" opacity="1.000000" stroke="none" 
	d="
M465.490753,123.854477 
	C469.472076,124.558617 470.534088,126.955368 470.026978,130.151184 
	C469.504181,133.446075 467.048981,134.211136 464.106995,134.209702 
	C436.292023,134.196075 408.476990,134.183685 380.662079,134.221558 
	C376.870697,134.226715 374.313385,132.662796 374.443726,128.779144 
	C374.576599,124.820633 377.449615,123.755836 381.099365,123.764191 
	C409.080719,123.828163 437.062256,123.809692 465.490753,123.854477 
z"/>
<path fill="#EAEAEA" opacity="1.000000" stroke="none" 
	d="
M418.970886,321.605682 
	C424.269104,320.192902 428.265411,321.690460 431.129028,325.804413 
	C433.647430,329.422394 433.698090,333.335846 431.417450,337.097504 
	C429.020050,341.051697 425.358185,342.729553 420.791534,342.083160 
	C415.968994,341.400482 412.963654,338.516510 411.994110,333.788940 
	C410.905701,328.481720 413.008484,324.854675 418.970886,321.605682 
z"/>
<path fill="#7F7F7F" opacity="1.000000" stroke="none" 
	d="
M289.063995,278.140686 
	C287.284027,278.377899 285.504181,278.821899 283.724121,278.822662 
	C203.641022,278.857025 123.557938,278.852570 43.474842,278.851257 
	C42.309551,278.851227 41.136055,278.919098 39.980373,278.808777 
	C34.590351,278.294373 33.034698,276.614624 33.026085,271.219299 
	C33.004292,257.566925 33.018703,243.914474 33.018696,230.262054 
	C33.018677,192.135178 33.016792,154.008301 33.020351,115.881424 
	C33.021053,108.346573 35.480099,106.384109 43.792358,108.111053 
	C49.160889,112.025139 53.976727,115.550888 58.893814,118.929283 
	C81.474182,134.443619 104.121483,149.860764 126.672928,165.416931 
	C167.533218,193.602692 208.360168,221.836884 249.162888,250.105972 
	C262.524139,259.362976 275.766998,268.790924 289.063995,278.140686 
z"/>
<path fill="#8A8A8A" opacity="1.000000" stroke="none" 
	d="
M289.495361,278.146851 
	C275.766998,268.790924 262.524139,259.362976 249.162888,250.105972 
	C208.360168,221.836884 167.533218,193.602692 126.672928,165.416931 
	C104.121483,149.860764 81.474182,134.443619 58.893814,118.929283 
	C53.976727,115.550888 49.160889,112.025139 44.137787,108.264679 
	C89.936073,107.928413 135.894989,107.884567 181.853897,107.864273 
	C218.155594,107.848251 254.457275,107.858887 290.758972,107.863091 
	C298.582764,107.863998 299.907013,109.209686 299.908081,117.233246 
	C299.914703,167.522751 299.912872,217.812241 299.910187,268.101746 
	C299.909698,277.090057 298.904297,278.094208 289.495361,278.146851 
z"/>
<path fill="#C2C2C2" opacity="1.000000" stroke="none" 
	d="
M179.000000,374.052307 
	C209.496750,374.052338 239.494003,374.137543 269.489746,373.963684 
	C274.187012,373.936462 277.321747,375.335754 279.767242,379.385345 
	C282.858154,384.503601 286.553406,389.253693 289.754578,394.310394 
	C290.721985,395.838593 290.914032,397.857635 291.461273,399.651825 
	C289.776337,400.101135 288.094666,400.925446 286.405945,400.940063 
	C273.741608,401.049896 261.075867,401.000000 248.410583,401.000000 
	C181.917786,401.000000 115.424973,401.000092 48.932171,400.999115 
	C47.432407,400.999115 45.925350,401.079102 44.434334,400.961487 
	C40.865719,400.679993 40.078465,398.651031 41.821350,395.851715 
	C45.778431,389.496002 49.628773,383.023315 54.218113,377.140869 
	C55.700459,375.240845 59.348873,374.191620 62.013203,374.178986 
	C100.841461,373.994568 139.670868,374.052307 179.000000,374.052307 
z"/>
</svg>